<?xml version="1.0" encoding="iso-8859-1"?>
<!-- Uploaded to: SVG Repo, www.svgrepo.com, Generator: SVG Repo Mixer Tools -->
<!DOCTYPE svg PUBLIC "-//W3C//DTD SVG 1.1//EN" "http://www.w3.org/Graphics/SVG/1.1/DTD/svg11.dtd">
<svg fill="#000000" version="1.1" id="Capa_1" xmlns="http://www.w3.org/2000/svg" xmlns:xlink="http://www.w3.org/1999/xlink"
	 width="800px" height="800px" viewBox="0 0 385.507 385.508"
	 xml:space="preserve">
<g>
	<g>
		<path d="M266.327,336.996v18.512H36.837V30h229.488v100.552c10.769,3.958,20.879,9.608,30,16.819v-2.947V10.721
			C296.326,4.799,291.527,0,285.604,0H17.559C11.636,0,6.837,4.799,6.837,10.721v364.066c0,5.922,4.799,10.721,10.721,10.721
			h268.046c5.923,0,10.722-4.799,10.722-10.721v-10.729v-0.575l-27.46-27.461C268.023,336.357,267.176,336.682,266.327,336.996z"/>
		<path d="M375.912,348.191l-69.646-69.644c20.11-34.966,14.566-79.408-14.434-108.409c-35.096-35.096-92.199-35.096-127.295,0
			c-35.096,35.096-35.096,92.199,0,127.297c29,28.998,73.442,34.543,108.408,14.434l69.644,69.645c3.681,3.682,9.647,3.68,13.329,0
			l19.992-19.992C379.59,357.84,379.59,351.871,375.912,348.191z M262.51,268.111c-18.927,18.926-49.724,18.928-68.649,0
			c-18.927-18.928-18.927-49.725,0-68.65c18.927-18.928,49.724-18.928,68.649,0C281.436,218.389,281.436,249.186,262.51,268.111z"/>
	</g>
</g>
</svg>
