<svg width="693" height="693" viewBox="0 0 693 693" fill="none" xmlns="http://www.w3.org/2000/svg">
<g clip-path="url(#clip0_1_2)">
<path d="M277.917 277.917V415.417M277.917 277.917H415.417M277.917 277.917V220.625C277.917 188.984 252.267 163.333 220.625 163.333C188.984 163.333 163.333 188.984 163.333 220.625C163.333 252.267 188.984 277.917 220.625 277.917H277.917ZM277.917 415.417H415.417M277.917 415.417H220.625C188.984 415.417 163.333 441.065 163.333 472.708C163.333 504.352 188.984 530 220.625 530C252.267 530 277.917 504.352 277.917 472.708V415.417ZM415.417 277.917V415.417M415.417 277.917V220.625C415.417 188.984 441.065 163.333 472.708 163.333C504.352 163.333 530 188.984 530 220.625C530 252.267 504.352 277.917 472.708 277.917H415.417ZM415.417 415.417V472.708C415.417 504.352 441.065 530 472.708 530C504.352 530 530 504.352 530 472.708C530 441.065 504.352 415.417 472.708 415.417H415.417ZM117.5 25.8334H575.833C626.461 25.8334 667.5 66.8739 667.5 117.5V575.833C667.5 626.461 626.461 667.5 575.833 667.5H117.5C66.8739 667.5 25.8334 626.461 25.8334 575.833V117.5C25.8334 66.8739 66.8739 25.8334 117.5 25.8334Z" stroke="black" stroke-width="63" stroke-linecap="round" stroke-linejoin="round"/>
</g>
<defs>
<clipPath id="clip0_1_2">
<rect width="693" height="693" fill="white"/>
</clipPath>
</defs>
</svg>
